<svg xmlns="http://www.w3.org/2000/svg">
  <symbol id="icon-twitter" viewBox="0 0 24 24">
    <path
      d="M21.9999 5.9246C21.2644 6.25051 20.4744 6.47071 19.6437 6.57025C20.4911 6.06289 21.1411 5.25782 21.4477 4.29948C20.6549 4.76984 19.7767 5.1116 18.8422 5.29481C18.0935 4.49855 17.0277 4 15.8474 4C13.5819 4 11.7445 5.8374 11.7445 8.10464C11.7445 8.42526 11.7815 8.73707 11.8502 9.03832C8.43877 8.86656 5.41666 7.23263 3.39252 4.75046C3.04019 5.35823 2.8376 6.06289 2.8376 6.81335C2.8376 8.23677 3.56252 9.4937 4.66267 10.2292C3.98972 10.2072 3.35729 10.0231 2.80413 9.71567V9.76852C2.80413 11.7565 4.21786 13.4151 6.09577 13.7921C5.75049 13.8855 5.38847 13.9348 5.015 13.9348C4.75075 13.9348 4.49267 13.9102 4.24252 13.8626C4.76485 15.4921 6.27987 16.6795 8.07587 16.7112C6.67095 17.8122 4.90137 18.4684 2.97942 18.4684C2.64823 18.4684 2.32144 18.449 1.99994 18.4112C3.8162 19.5765 5.97246 20.2547 8.28903 20.2547C15.8377 20.2547 19.9644 14.0026 19.9644 8.58029C19.9644 8.40412 19.9599 8.2262 19.952 8.05003C20.7536 7.47045 21.4494 6.74905 21.9982 5.92724L21.9999 5.9246Z"
      stroke-linejoin="round"
    ></path>
  </symbol>

  <symbol id="icon-instagram" viewBox="0 0 24 24">
    <path d="M3.06167 7.24464C3.10844 6.22264 3.26846 5.56351 3.48487 5.00402L3.48778 4.99629C3.70223 4.42695 4.03818 3.91119 4.47224 3.48489L4.47833 3.47891L4.48431 3.47282C4.91096 3.0382 5.42691 2.70258 5.99575 2.4887L6.00556 2.48495C6.56378 2.26786 7.22162 2.10843 8.24447 2.06167M3.06167 7.24464C3.0125 8.33659 2.99997 8.67508 2.99997 11.5063C2.99997 14.3381 3.01181 14.6758 3.06164 15.768M3.06167 7.24464L3.06167 7.52008M3.48867 18.0168C3.70255 18.5856 4.03817 19.1015 4.47279 19.5282L4.47887 19.5342L4.48484 19.5402C4.91116 19.9743 5.42694 20.3103 5.99628 20.5247L6.00478 20.5279C6.56351 20.7446 7.22167 20.9041 8.24447 20.9509M3.48867 18.0168L3.48492 18.0069C3.26783 17.4487 3.1084 16.7909 3.06164 15.768M3.48867 18.0168L3.47585 17.9492M3.06164 15.768L3.07839 15.8562M3.06164 15.768L3.06164 15.4919M3.47585 17.9492L3.07839 15.8562M3.47585 17.9492C3.30704 17.5033 3.13322 16.881 3.07839 15.8562M3.47585 17.9492C3.48177 17.9649 3.48768 17.9803 3.49359 17.9955C3.70766 18.5726 4.04685 19.0952 4.48679 19.5256C4.91708 19.9655 5.43944 20.3046 6.01636 20.5187C6.47934 20.699 7.13172 20.8875 8.24431 20.9385C9.3671 20.9896 9.71399 21 12.5062 21C15.2985 21 15.6457 20.9896 16.7685 20.9385C17.8824 20.8874 18.534 20.6979 18.9954 20.519C19.5726 20.305 20.0953 19.9657 20.5257 19.5256C20.9655 19.0953 21.3046 18.573 21.5187 17.9961C21.699 17.5331 21.8875 16.8808 21.9384 15.7682C21.9895 14.6454 22 14.2978 22 11.5063C22 8.71472 21.9895 8.36684 21.9384 7.24405C21.8871 6.12427 21.6959 5.47168 21.5161 5.00992C21.2811 4.40322 20.9831 3.94437 20.525 3.48627C20.0678 3.02999 19.6102 2.73179 19.003 2.49654C18.5396 2.31537 17.8866 2.12531 16.7685 2.07406C16.6712 2.06964 16.5798 2.06552 16.4921 2.06168M3.07839 15.8562C3.07684 15.8273 3.07539 15.7981 3.07403 15.7685C3.06961 15.6712 3.06548 15.5797 3.06164 15.4919M8.24447 2.06167C9.33668 2.01184 9.67505 2 12.5062 2C15.3374 2 15.6756 2.01252 16.7675 2.06168M8.24447 2.06167L8.52062 2.06167M16.7675 2.06168L16.4921 2.06168M16.7675 2.06168C17.7897 2.10844 18.4489 2.26844 19.0085 2.48487L19.0162 2.48781C19.5855 2.70226 20.1013 3.03821 20.5276 3.47227L20.5335 3.4783L20.5396 3.48422C20.9737 3.91055 21.3096 4.42646 21.5239 4.99596L21.5275 5.00559C21.7446 5.56381 21.9041 6.22165 21.9508 7.2445M8.52062 2.06167L16.4921 2.06168M8.52062 2.06167C9.44548 2.02123 9.95666 2.01253 12.5062 2.01253C15.056 2.01253 15.5671 2.02124 16.4921 2.06168M8.52062 2.06167C8.43284 2.06551 8.34134 2.06964 8.24402 2.07406C7.13004 2.12512 6.47843 2.31464 6.01708 2.49358C5.43767 2.70837 4.91328 3.04936 4.48192 3.49186C4.0281 3.94756 3.73105 4.40422 3.49655 5.0094C3.31536 5.4728 3.12527 6.12614 3.07402 7.24434C3.06961 7.34135 3.06549 7.43257 3.06167 7.52008M21.9508 15.768C21.9041 16.7908 21.7446 17.449 21.5279 18.0077L21.5247 18.0162C21.3102 18.5856 20.9743 19.1013 20.5402 19.5276L20.5341 19.5336L20.5282 19.5397C20.1015 19.9743 19.5856 20.3099 19.0167 20.5238L19.0069 20.5276C18.4487 20.7447 17.7908 20.9041 16.768 20.9509M3.06164 15.4919C3.0212 14.567 3.0125 14.0558 3.0125 11.5063C3.0125 8.95591 3.0212 8.44544 3.06167 7.52008M3.06164 15.4919L3.06167 7.52008M10.8155 15.5881C11.3515 15.8101 11.926 15.9244 12.5062 15.9244C13.678 15.9244 14.8018 15.4589 15.6304 14.6304C16.4589 13.8018 16.9244 12.678 16.9244 11.5063C16.9244 10.3345 16.4589 9.21072 15.6304 8.38215C14.8018 7.55359 13.678 7.0881 12.5062 7.0881C11.926 7.0881 11.3515 7.20238 10.8155 7.42442C10.2794 7.64645 9.79239 7.97189 9.38213 8.38215C8.97187 8.79242 8.64643 9.27947 8.42439 9.81551C8.20236 10.3515 8.08808 10.9261 8.08808 11.5063C8.08808 12.0865 8.20236 12.661 8.42439 13.197C8.64643 13.7331 8.97187 14.2201 9.38213 14.6304C9.79239 15.0406 10.2794 15.3661 10.8155 15.5881ZM9.37229 8.37231C10.2035 7.54113 11.3308 7.07418 12.5062 7.07418C13.6817 7.07418 14.809 7.54113 15.6402 8.37231C16.4714 9.20349 16.9383 10.3308 16.9383 11.5063C16.9383 12.6817 16.4714 13.809 15.6402 14.6402C14.809 15.4714 13.6817 15.9383 12.5062 15.9383C11.3308 15.9383 10.2035 15.4714 9.37229 14.6402C8.54111 13.809 8.07416 12.6817 8.07416 11.5063C8.07416 10.3308 8.54111 9.20349 9.37229 8.37231ZM19.434 6.04229C19.434 6.37873 19.3003 6.70139 19.0625 6.93929C18.8246 7.17719 18.5019 7.31084 18.1655 7.31084C17.829 7.31084 17.5064 7.17719 17.2685 6.93929C17.0306 6.70139 16.8969 6.37873 16.8969 6.04229C16.8969 5.70585 17.0306 5.38319 17.2685 5.1453C17.5064 4.9074 17.829 4.77375 18.1655 4.77375C18.5019 4.77375 18.8246 4.9074 19.0625 5.1453C19.3003 5.38319 19.434 5.70585 19.434 6.04229Z" stroke-linejoin="round"/>
  </symbol>

  <symbol id="icon-facebook" viewBox="0 0 24 24">
    <path
      d="M22 12C22 6.47714 17.5229 1.99999 12 1.99999C6.47715 1.99999 2 6.47714 2 12C2 16.9913 5.65686 21.1283 10.4375 21.8785V14.8906H7.89844V12H10.4375V9.79687C10.4375 7.29062 11.9304 5.90624 14.2146 5.90624C15.3087 5.90624 16.4531 6.10155 16.4531 6.10155V8.56249H15.1921C13.9499 8.56249 13.5625 9.33333 13.5625 10.1242V12H16.3359L15.8926 14.8906H13.5625V21.8785C18.3431 21.1283 22 16.9913 22 12Z"
      stroke-linejoin="round"
    />
  </symbol>

  <symbol id="icon-user" viewBox="0 0 24 24">
    <g id="style=stroke">
    <g id="profile">
    <path id="vector (Stroke)" fill-rule="evenodd" clip-rule="evenodd" d="M12 2.75C9.92893 2.75 8.25 4.42893 8.25 6.5C8.25 8.57107 9.92893 10.25 12 10.25C14.0711 10.25 15.75 8.57107 15.75 6.5C15.75 4.42893 14.0711 2.75 12 2.75ZM6.75 6.5C6.75 3.6005 9.1005 1.25 12 1.25C14.8995 1.25 17.25 3.6005 17.25 6.5C17.25 9.3995 14.8995 11.75 12 11.75C9.1005 11.75 6.75 9.3995 6.75 6.5Z" fill="#000000"></path>
    <path id="rec (Stroke)" fill-rule="evenodd" clip-rule="evenodd" d="M4.25 18.5714C4.25 15.6325 6.63249 13.25 9.57143 13.25H14.4286C17.3675 13.25 19.75 15.6325 19.75 18.5714C19.75 20.8792 17.8792 22.75 15.5714 22.75H8.42857C6.12081 22.75 4.25 20.8792 4.25 18.5714ZM9.57143 14.75C7.46091 14.75 5.75 16.4609 5.75 18.5714C5.75 20.0508 6.94924 21.25 8.42857 21.25H15.5714C17.0508 21.25 18.25 20.0508 18.25 18.5714C18.25 16.4609 16.5391 14.75 14.4286 14.75H9.57143Z" fill="#000000"></path>
    </g>
    </g>
  </symbol>

  <symbol id="icon-add" viewBox="0 0 24 24">
    <path d="M5,10.75V6.5H.75A.75.75,0,0,1,.75,5H5V.75a.75.75,0,0,1,1.5,0V5h4.25a.75.75,0,1,1,0,1.5H6.5v4.25a.75.75,0,1,1-1.5,0Z" transform="translate(6 6)"></path>
  </symbol>

  <symbol id="icon-minus" viewBox="0 0 92 92">
    <path id="XMLID_38_" d="M68,50.5H24c-2.5,0-4.5-2-4.5-4.5s2-4.5,4.5-4.5h44c2.5,0,4.5,2,4.5,4.5S70.5,50.5,68,50.5z"/>
  </symbol>

  <symbol id="icon-headphone" viewBox="0 0 32 32">
    <path d="M31.371,27.929 L21.371,31.929 C21.253,31.976 21.127,32.000 21.000,32.000 L17.000,32.000 L15.000,32.000 C14.448,32.000 14.000,31.553 14.000,31.000 L14.000,30.000 C14.000,29.447 14.448,29.000 15.000,29.000 L17.000,29.000 C17.553,29.000 18.000,29.447 18.000,30.000 L20.808,30.000 L26.151,27.863 C24.912,27.494 24.000,26.357 24.000,25.000 L24.000,19.000 C24.000,17.346 25.346,16.000 27.000,16.000 L29.000,16.000 C29.352,16.000 29.686,16.072 30.000,16.184 L30.000,16.000 C30.000,8.280 23.720,2.000 16.000,2.000 C8.280,2.000 2.000,8.280 2.000,16.000 L2.000,16.184 C2.314,16.072 2.648,16.000 3.000,16.000 L5.000,16.000 C6.654,16.000 8.000,17.346 8.000,19.000 L8.000,25.000 C8.000,26.654 6.654,28.000 5.000,28.000 L3.000,28.000 C1.346,28.000 0.000,26.654 0.000,25.000 L0.000,19.000 L0.000,16.000 C0.000,7.178 7.178,-0.000 16.000,-0.000 C24.822,-0.000 32.000,7.178 32.000,16.000 L32.000,17.000 L32.000,19.000 L32.000,25.000 L32.000,27.000 C32.000,27.409 31.751,27.776 31.371,27.929 ZM2.000,25.000 C2.000,25.552 2.449,26.000 3.000,26.000 L5.000,26.000 C5.551,26.000 6.000,25.552 6.000,25.000 L6.000,19.000 C6.000,18.448 5.551,18.000 5.000,18.000 L3.000,18.000 C2.449,18.000 2.000,18.448 2.000,19.000 L2.000,25.000 ZM29.000,18.000 L27.000,18.000 C26.448,18.000 26.000,18.448 26.000,19.000 L26.000,25.000 C26.000,25.552 26.448,26.000 27.000,26.000 L29.000,26.000 C29.552,26.000 30.000,25.552 30.000,25.000 L30.000,19.000 C30.000,18.448 29.552,18.000 29.000,18.000 Z"/>
  </symbol>

  <symbol id="icon-savings" viewBox="0 -1.5 48 48">
    <path id="coins" d="M320.857,468.479c-4.328-1.088-6.981-2.637-7.673-4.478H313v-7a3.265,3.265,0,0,1,1-2.257V450.1a4.711,4.711,0,0,1-1.816-2.1H312v-7c0-1.619,1.345-3.033,4-4.2V432c0-4.6,11.068-7,22-7s22,2.4,22,7v7h-.181c-.448,1.205-1.727,2.278-3.819,3.2v2.7a3.9,3.9,0,0,1,2,3.1v7h-.185a3.856,3.856,0,0,1-.895,1.337A2.92,2.92,0,0,1,357,457v7h-.184c-.692,1.841-3.346,3.39-7.673,4.478a66.515,66.515,0,0,1-28.286,0ZM334.88,468h.239c2.036,0,4.011-.087,5.881-.243V465h1v2.665A41.213,41.213,0,0,0,350.59,466H350v-3h1v2.861a16.562,16.562,0,0,0,1.762-.729A13.1,13.1,0,0,0,355,463.919V460.1a22.359,22.359,0,0,1-8.331,2.911,69.635,69.635,0,0,1-23.337,0A22.358,22.358,0,0,1,315,460.1v3.815a13.378,13.378,0,0,0,2.231,1.21,24.543,24.543,0,0,0,5.769,1.8V464h1v3.119a60.16,60.16,0,0,0,8,.822V465h1v2.974Q333.93,468,334.88,468ZM315,457c0,2.088,7.609,5,20,5a56.889,56.889,0,0,0,13.557-1.427c2.923-.724,5.041-1.652,5.962-2.613C350.6,459.864,343.678,461,336,461a64.428,64.428,0,0,1-12.541-1.156c-3.944-.813-6.809-1.993-8.284-3.412A1.111,1.111,0,0,0,315,457Zm20.88,2h.239c2.036,0,4.011-.087,5.881-.243V456h1v2.665a43.03,43.03,0,0,0,8-1.478V455h1v1.86a16.579,16.579,0,0,0,1.762-.728A13.209,13.209,0,0,0,356,454.919V451.1a22.346,22.346,0,0,1-8.331,2.912,69.64,69.64,0,0,1-23.338,0,24.04,24.04,0,0,1-7.914-2.638c-.125-.051-.257-.108-.418-.177v3.718a13.162,13.162,0,0,0,2.231,1.21,24.543,24.543,0,0,0,5.769,1.8V455h1v3h-.642a58.75,58.75,0,0,0,8.643.941V456h1v2.974Q334.93,459,335.88,459Zm-2-7h.239q.949,0,1.88-.026V449h1v2.941a58.734,58.734,0,0,0,8.646-.941H345v-3h1v2.93a24.484,24.484,0,0,0,5.777-1.806A13.171,13.171,0,0,0,354,447.918V444.1a22.352,22.352,0,0,1-8.331,2.912,69.635,69.635,0,0,1-23.337,0A22.36,22.36,0,0,1,314,444.1v3.814a13.127,13.127,0,0,0,2.218,1.205,16.543,16.543,0,0,0,1.781.737V447h1v3.186a43.042,43.042,0,0,0,8,1.478V449h1v2.756C329.869,451.913,331.844,452,333.88,452Zm20.572-2.237c1.012-.6,1.547-1.207,1.547-1.762h-.184A4.3,4.3,0,0,1,354.452,449.762ZM314,441c0,2.088,7.609,5,20,5a51.442,51.442,0,0,0,15.336-1.925A66.045,66.045,0,0,1,338,445a60.165,60.165,0,0,1-14.234-1.544c-4.278-1.088-6.9-2.628-7.583-4.457H316v-.012C314.709,439.658,314,440.369,314,441Zm23.881,2h.239c2.035,0,4.01-.087,5.88-.243V440h1v2.665A41.228,41.228,0,0,0,353.588,441H353v-3h1v2.859a16.568,16.568,0,0,0,1.775-.734A13.092,13.092,0,0,0,358,438.918V435.1c-3.675,2.569-11.875,3.9-20,3.9s-16.325-1.328-20-3.9v3.815a13.107,13.107,0,0,0,2.226,1.207,24.5,24.5,0,0,0,5.774,1.8V439h1v3.119a60.154,60.154,0,0,0,8,.821V440h1v2.974Q336.93,443,337.881,443ZM318,432c0,2.088,7.609,5,20,5s20-2.912,20-5-7.609-5-20-5S318,429.912,318,432Z" transform="translate(-312 -425)" fill="#494949"/>
  </symbol>

  <symbol id="icon-quality" viewBox="0 0 56 56">
    <path d="M 23.6641 52.3985 C 26.6407 55.375 29.3594 55.3516 32.3126 52.3985 L 35.9219 48.8125 C 36.2969 48.4610 36.6250 48.3203 37.1172 48.3203 L 42.1797 48.3203 C 46.3749 48.3203 48.3204 46.3985 48.3204 42.1797 L 48.3204 37.1172 C 48.3204 36.625 48.4610 36.2969 48.8124 35.9219 L 52.3749 32.3125 C 55.3749 29.3594 55.3514 26.6407 52.3749 23.6641 L 48.8124 20.0547 C 48.4610 19.7031 48.3204 19.3516 48.3204 18.8829 L 48.3204 13.7969 C 48.3204 9.625 46.3985 7.6563 42.1797 7.6563 L 37.1172 7.6563 C 36.6250 7.6563 36.2969 7.5391 35.9219 7.1875 L 32.3126 3.6016 C 29.3594 .6250 26.6407 .6485 23.6641 3.6016 L 20.0547 7.1875 C 19.7032 7.5391 19.3516 7.6563 18.8828 7.6563 L 13.7969 7.6563 C 9.6016 7.6563 7.6563 9.5782 7.6563 13.7969 L 7.6563 18.8829 C 7.6563 19.3516 7.5391 19.7031 7.1876 20.0547 L 3.6016 23.6641 C .6251 26.6407 .6485 29.3594 3.6016 32.3125 L 7.1876 35.9219 C 7.5391 36.2969 7.6563 36.625 7.6563 37.1172 L 7.6563 42.1797 C 7.6563 46.3750 9.6016 48.3203 13.7969 48.3203 L 18.8828 48.3203 C 19.3516 48.3203 19.7032 48.4610 20.0547 48.8125 Z M 26.2891 49.7734 L 21.8828 45.3438 C 21.3672 44.8047 20.8282 44.5938 20.1016 44.5938 L 13.7969 44.5938 C 11.7110 44.5938 11.3828 44.2656 11.3828 42.1797 L 11.3828 35.875 C 11.3828 35.1719 11.1719 34.6329 10.6563 34.1172 L 6.2266 29.7109 C 4.7501 28.2109 4.7501 27.7891 6.2266 26.2891 L 10.6563 21.8829 C 11.1719 21.3672 11.3828 20.8282 11.3828 20.1016 L 11.3828 13.7969 C 11.3828 11.6875 11.6876 11.3829 13.7969 11.3829 L 20.1016 11.3829 C 20.8282 11.3829 21.3672 11.1953 21.8828 10.6563 L 26.2891 6.2266 C 27.7891 4.7500 28.2110 4.7500 29.7110 6.2266 L 34.1172 10.6563 C 34.6328 11.1953 35.1719 11.3829 35.8750 11.3829 L 42.1797 11.3829 C 44.2657 11.3829 44.5938 11.7109 44.5938 13.7969 L 44.5938 20.1016 C 44.5938 20.8282 44.8282 21.3672 45.3439 21.8829 L 49.7733 26.2891 C 51.2498 27.7891 51.2498 28.2109 49.7733 29.7109 L 45.3439 34.1172 C 44.8282 34.6329 44.5938 35.1719 44.5938 35.875 L 44.5938 42.1797 C 44.5938 44.2656 44.2657 44.5938 42.1797 44.5938 L 35.8750 44.5938 C 35.1719 44.5938 34.6328 44.8047 34.1172 45.3438 L 29.7110 49.7734 C 28.2110 51.2500 27.7891 51.2500 26.2891 49.7734 Z M 24.3438 39.2266 C 25.0235 39.2266 25.5391 38.9453 25.8907 38.5234 L 38.8985 20.3360 C 39.1563 19.9609 39.2969 19.5391 39.2969 19.1407 C 39.2969 18.1094 38.5001 17.2891 37.4219 17.2891 C 36.6485 17.2891 36.2266 17.5469 35.7579 18.2266 L 24.2735 34.3985 L 18.3438 27.8594 C 17.9454 27.4141 17.5001 27.2266 16.9141 27.2266 C 15.7657 27.2266 14.9454 28.0000 14.9454 29.0782 C 14.9454 29.5469 15.1094 29.9922 15.4376 30.3203 L 22.8907 38.6172 C 23.2423 38.9922 23.6876 39.2266 24.3438 39.2266 Z"/>
  </symbol>

  <symbol id="icon-cart" viewBox="0 0 64 64">
    <g>
      <path
        d="M0,10c0,1.104,0.896,2,2,2h6.166L12,56.173c0,0.003,0,0.005,0,0.007c0,4.328,3.645,7.82,7.996,7.82
      c3.719,0,6.849-2.556,7.74-6h8.527c0.892,3.444,4.017,6,7.736,6c4.411,0,8-3.589,8-8s-3.589-8-8-8c-3.72,0-6.845,2.556-7.736,6
      h-8.527c-0.892-3.444-4.017-6-7.736-6c-1.696,0-3.268,0.534-4.563,1.438l-0.561-6.45C14.917,42.99,14.956,43,14.998,43
      c0.033,0,0.066-0.001,0.1-0.002l41-2c0.855-0.042,1.59-0.625,1.825-1.448l6-21c0.173-0.604,0.052-1.253-0.326-1.754
      S62.628,16,62,16H12.529l-0.537-6.173C11.902,8.793,11.037,8,10,8H2C0.896,8,0,8.896,0,10z M44,52c2.206,0,4,1.794,4,4
      s-1.794,4-4,4s-4-1.794-4-4S41.794,52,44,52z M20,52c2.206,0,4,1.794,4,4s-1.794,4-4,4s-4-1.794-4-4S17.794,52,20,52z M59.349,20
      l-4.878,17.072l-39.568,1.93c-0.127,0.006-0.249,0.027-0.368,0.056L12.877,20H59.349z"
      />
    </g>
  </symbol>

  <symbol id="icon-eye" viewBox="0 0 36 36">
    <path
      d="M33.62,17.53c-3.37-6.23-9.28-10-15.82-10S5.34,11.3,2,17.53L1.72,18l.26.48c3.37,6.23,9.28,10,15.82,10s12.46-3.72,15.82-10l.26-.48ZM17.8,26.43C12.17,26.43,7,23.29,4,18c3-5.29,8.17-8.43,13.8-8.43S28.54,12.72,31.59,18C28.54,23.29,23.42,26.43,17.8,26.43Z"
      class="clr-i-outline clr-i-outline-path-1"
    ></path>
    <path
      d="M18.09,11.17A6.86,6.86,0,1,0,25,18,6.86,6.86,0,0,0,18.09,11.17Zm0,11.72A4.86,4.86,0,1,1,23,18,4.87,4.87,0,0,1,18.09,22.89Z"
      class="clr-i-outline clr-i-outline-path-2"
    ></path>
    <rect x="0" y="0" width="36" height="36" fill-opacity="0"></rect>
  </symbol>

  <symbol id="icon-trash" viewBox="0 0 32 32">
    <path
      d="M 15 4 C 14.476563 4 13.941406 4.183594 13.5625 4.5625 C 13.183594 4.941406 13 5.476563 13 6 L 13 7 L 7 7 L 7 9 L 8 9 L 8 25 C 8 26.644531 9.355469 28 11 28 L 23 28 C 24.644531 28 26 26.644531 26 25 L 26 9 L 27 9 L 27 7 L 21 7 L 21 6 C 21 5.476563 20.816406 4.941406 20.4375 4.5625 C 20.058594 4.183594 19.523438 4 19 4 Z M 15 6 L 19 6 L 19 7 L 15 7 Z M 10 9 L 24 9 L 24 25 C 24 25.554688 23.554688 26 23 26 L 11 26 C 10.445313 26 10 25.554688 10 25 Z M 12 12 L 12 23 L 14 23 L 14 12 Z M 16 12 L 16 23 L 18 23 L 18 12 Z M 20 12 L 20 23 L 22 23 L 22 12 Z"
    />
  </symbol>

  <symbol id="icon-menu" viewBox="0 0 24 24">
    <path d="M2 5.99519C2 5.44556 2.44556 5 2.99519 5H11.0048C11.5544 5 12 5.44556 12 5.99519C12 6.54482 11.5544 6.99039 11.0048 6.99039H2.99519C2.44556 6.99039 2 6.54482 2 5.99519Z" fill="#000000"></path>
    <path d="M2 11.9998C2 11.4501 2.44556 11.0046 2.99519 11.0046H21.0048C21.5544 11.0046 22 11.4501 22 11.9998C22 12.5494 21.5544 12.9949 21.0048 12.9949H2.99519C2.44556 12.9949 2 12.5494 2 11.9998Z" fill="#000000"></path>
    <path d="M2.99519 17.0096C2.44556 17.0096 2 17.4552 2 18.0048C2 18.5544 2.44556 19 2.99519 19H15.0048C15.5544 19 16 18.5544 16 18.0048C16 17.4552 15.5544 17.0096 15.0048 17.0096H2.99519Z" fill="#000000"></path>
  </symbol>

  <symbol id="icon-alert" viewBox="0 0 48 48">
    <path fill-rule="evenodd" clip-rule="evenodd" d="M24 4C24.3788 4 24.725 4.214 24.8944 4.55279L43.8944 42.5528C44.0494 42.8628 44.0329 43.2309 43.8507 43.5257C43.6684 43.8205 43.3466 44 43 44H5C4.65342 44 4.33156 43.8205 4.14935 43.5257C3.96714 43.2309 3.95058 42.8628 4.10557 42.5528L23.1056 4.55279C23.275 4.214 23.6212 4 24 4ZM6.61803 42H41.382L24 7.23607L6.61803 42Z" fill="#333333"/>
    <path fill-rule="evenodd" clip-rule="evenodd" d="M25 19V29C25 29.5523 24.5523 30 24 30C23.4477 30 23 29.5523 23 29V19C23 18.4477 23.4477 18 24 18C24.5523 18 25 18.4477 25 19ZM21 19C21 17.3431 22.3431 16 24 16C25.6569 16 27 17.3431 27 19V29C27 30.6569 25.6569 32 24 32C22.3431 32 21 30.6569 21 29V19ZM24 38C23.4477 38 23 37.5523 23 37C23 36.4477 23.4477 36 24 36C24.5523 36 25 36.4477 25 37C25 37.5523 24.5523 38 24 38ZM21 37C21 35.3431 22.3431 34 24 34C25.6569 34 27 35.3431 27 37C27 38.6569 25.6569 40 24 40C22.3431 40 21 38.6569 21 37Z" fill="#333333"/>
  </symbol>

  <symbol id="icon-check-circle" viewBox="0 0 20 20">
    <path d="M10,0 C15.5228475,0 20,4.4771525 20,10 C20,15.5228475 15.5228475,20 10,20 C4.4771525,20 0,15.5228475 0,10 C0,4.4771525 4.4771525,0 10,0 Z M10,1.39534884 C5.24778239,1.39534884 1.39534884,5.24778239 1.39534884,10 C1.39534884,14.7522176 5.24778239,18.6046512 10,18.6046512 C14.7522176,18.6046512 18.6046512,14.7522176 18.6046512,10 C18.6046512,5.24778239 14.7522176,1.39534884 10,1.39534884 Z M14.9217059,6.58259135 C15.2023597,6.83364758 15.2263532,7.26468369 14.975297,7.54533745 L10.0661666,13.0332153 C9.79907323,13.3317969 9.33334374,13.336857 9.05982608,13.0441491 L5.71907855,9.46901192 C5.46198377,9.19387916 5.47660645,8.76242348 5.75173921,8.5053287 C6.02687198,8.24823392 6.45832765,8.26285659 6.71542243,8.53798936 L9.54702033,11.5682545 L13.9589598,6.63618243 C14.210016,6.35552866 14.6410521,6.33153512 14.9217059,6.58259135 Z">
  </path>
</symbol>

<symbol id="icon-mobile" viewBox="0 0 16 16">
  <path d="M11 1a1 1 0 0 1 1 1v12a1 1 0 0 1-1 1H5a1 1 0 0 1-1-1V2a1 1 0 0 1 1-1h6zM5 0a2 2 0 0 0-2 2v12a2 2 0 0 0 2 2h6a2 2 0 0 0 2-2V2a2 2 0 0 0-2-2H5z"></path>
  <path d="M8 14a1 1 0 1 0 0-2 1 1 0 0 0 0 2z"></path>
</symbol>

<symbol id="icon-address" viewBox="0 0 24 24">
  <g>
  <path d="M0 0h24v24H0z" fill="none"></path>
  <path d="M21 21H3a1 1 0 0 1-1-1v-7.513a1 1 0 0 1 .343-.754L6 8.544V4a1 1 0 0 1 1-1h14a1 1 0 0 1 1 1v16a1 1 0 0 1-1 1zM9 19h3v-6.058L8 9.454l-4 3.488V19h3v-4h2v4zm5 0h6V5H8v2.127c.234 0 .469.082.657.247l5 4.359a1 1 0 0 1 .343.754V19zm2-8h2v2h-2v-2zm0 4h2v2h-2v-2zm0-8h2v2h-2V7zm-4 0h2v2h-2V7z"></path>
  </g>
</symbol>

<symbol id="icon-pin" viewBox="0 0 56 56">
  <path d="M 27.9883 43.1992 C 28.9492 43.1992 30.1680 39.4492 30.1680 32.5352 L 30.1680 21.4961 C 33.9883 20.5117 36.8008 17.0430 36.8008 12.9180 C 36.8008 8.0664 32.8867 4.1055 27.9883 4.1055 C 23.1133 4.1055 19.1992 8.0664 19.1992 12.9180 C 19.1992 17.0430 21.9883 20.5117 25.8086 21.4726 L 25.8086 32.5352 C 25.8086 39.4258 27.0508 43.1992 27.9883 43.1992 Z M 25.4805 13.4102 C 23.8867 13.4102 22.4805 12.0039 22.4805 10.3867 C 22.4805 8.7461 23.8867 7.3633 25.4805 7.3633 C 27.1211 7.3633 28.4805 8.7461 28.4805 10.3867 C 28.4805 12.0039 27.1211 13.4102 25.4805 13.4102 Z M 27.9883 51.8945 C 42.1680 51.8945 50.3711 46.9727 50.3711 41.7461 C 50.3711 35.4414 40.3399 31.6211 33.8711 31.5977 L 33.8711 35.2539 C 38.3711 35.2774 45.3789 37.7148 45.3789 41.1836 C 45.3789 44.8633 38.7696 47.9570 27.9883 47.9570 C 17.2305 47.9570 10.6211 44.8867 10.6211 41.1836 C 10.6211 37.7148 17.6289 35.2774 22.1289 35.2539 L 22.1289 31.5977 C 15.6602 31.6211 5.6289 35.4414 5.6289 41.7461 C 5.6289 46.9727 13.8321 51.8945 27.9883 51.8945 Z" fill="#0077b6" style=""></path>
</symbol>

<symbol id="icon-email" viewBox="0 -15.4 108.5 108.5">
  <g id="Group_23" data-name="Group 23" transform="translate(-278.6 -471.2)">
    <path id="Path_14" data-name="Path 14" d="M371.9,473.2H293.8a13.187,13.187,0,0,0-13.2,13.2v47.3a13.187,13.187,0,0,0,13.2,13.2h78.1a13.187,13.187,0,0,0,13.2-13.2V486.4A13.317,13.317,0,0,0,371.9,473.2Z" fill="none" stroke="#2b4ea2" stroke-linecap="round" stroke-miterlimit="10" stroke-width="4"></path>
    <path id="Path_15" data-name="Path 15" d="M282.1,488.2l51.1,21.9,25.2-10.8" fill="none" stroke="#2b4ea2" stroke-linecap="round" stroke-miterlimit="10" stroke-width="4"></path>
    <path id="Path_16" data-name="Path 16" d="M374,490.7a4.331,4.331,0,0,1-5,5,4.241,4.241,0,0,1-3.6-3.6,4.331,4.331,0,0,1,5-5A4.241,4.241,0,0,1,374,490.7Z" fill="#2b4ea2" stroke="#2b4ea2" stroke-miterlimit="10" stroke-width="1"></path>
    <line id="Line_1" data-name="Line 1" x1="19.5" y2="19.8" transform="translate(287.4 524)" fill="none" stroke="#2b4ea2" stroke-linecap="round" stroke-miterlimit="10" stroke-width="4"></line>
    <line id="Line_2" data-name="Line 2" x2="19.5" y2="19.8" transform="translate(358.7 524)" fill="none" stroke="#2b4ea2" stroke-linecap="round" stroke-miterlimit="10" stroke-width="4"></line>
  </g>
</symbol>

<symbol id="icon-call" viewBox="0 0 32 32" >
  <path d="M 8.65625 3 C 8.132813 3 7.617188 3.1875 7.1875 3.53125 L 7.125 3.5625 L 7.09375 3.59375 L 3.96875 6.8125 L 4 6.84375 C 3.035156 7.734375 2.738281 9.066406 3.15625 10.21875 C 3.160156 10.226563 3.152344 10.242188 3.15625 10.25 C 4.003906 12.675781 6.171875 17.359375 10.40625 21.59375 C 14.65625 25.84375 19.402344 27.925781 21.75 28.84375 L 21.78125 28.84375 C 22.996094 29.25 24.3125 28.960938 25.25 28.15625 L 28.40625 25 C 29.234375 24.171875 29.234375 22.734375 28.40625 21.90625 L 24.34375 17.84375 L 24.3125 17.78125 C 23.484375 16.953125 22.015625 16.953125 21.1875 17.78125 L 19.1875 19.78125 C 18.464844 19.433594 16.742188 18.542969 15.09375 16.96875 C 13.457031 15.40625 12.621094 13.609375 12.3125 12.90625 L 14.3125 10.90625 C 15.152344 10.066406 15.167969 8.667969 14.28125 7.84375 L 14.3125 7.8125 L 14.21875 7.71875 L 10.21875 3.59375 L 10.1875 3.5625 L 10.125 3.53125 C 9.695313 3.1875 9.179688 3 8.65625 3 Z M 8.65625 5 C 8.730469 5 8.804688 5.035156 8.875 5.09375 L 12.875 9.1875 L 12.96875 9.28125 C 12.960938 9.273438 13.027344 9.378906 12.90625 9.5 L 10.40625 12 L 9.9375 12.4375 L 10.15625 13.0625 C 10.15625 13.0625 11.304688 16.136719 13.71875 18.4375 L 13.9375 18.625 C 16.261719 20.746094 19 21.90625 19 21.90625 L 19.625 22.1875 L 22.59375 19.21875 C 22.765625 19.046875 22.734375 19.046875 22.90625 19.21875 L 27 23.3125 C 27.171875 23.484375 27.171875 23.421875 27 23.59375 L 23.9375 26.65625 C 23.476563 27.050781 22.988281 27.132813 22.40625 26.9375 C 20.140625 26.046875 15.738281 24.113281 11.8125 20.1875 C 7.855469 16.230469 5.789063 11.742188 5.03125 9.5625 C 4.878906 9.15625 4.988281 8.554688 5.34375 8.25 L 5.40625 8.1875 L 8.4375 5.09375 C 8.507813 5.035156 8.582031 5 8.65625 5 Z" fill="#0077b6" style=""></path>
</symbol>

</svg>
